<svg width="359" height="118" viewBox="0 0 359 118" fill="none" xmlns="http://www.w3.org/2000/svg">
<path d="M0.0151978 49.4676V1.09249C0.0151978 0.443211 0.453433 0.0078125 1.10694 0.0078125H5.39704C5.98135 0.0078125 6.4119 0.298078 6.63486 0.802224L13.0316 14.4524C14.3386 17.1946 17.683 17.1946 18.99 14.4524L25.4482 0.802224C25.6635 0.298078 26.1017 0.0078125 26.6861 0.0078125H30.9762C31.6297 0.0078125 32.0679 0.443211 32.0679 1.09249V49.4676C32.0679 50.1168 31.6297 50.5522 30.9762 50.5522H26.1786C25.5251 50.5522 25.0869 50.1168 25.0869 49.4676V35.6799C25.0869 32.6474 21.8885 31.7843 20.5046 34.4501L17.1602 40.6603C16.5759 41.6686 15.4149 41.6686 14.8383 40.6603L11.4939 34.4501C10.0408 31.7766 6.98852 32.6474 6.98852 35.6799V49.4676C6.98852 50.1168 6.55029 50.5522 5.89678 50.5522H1.10694C0.453433 50.5522 0.0151978 50.1168 0.0151978 49.4676Z" fill="#212121"/>
<path d="M42.3088 49.3224L61.8602 0.870971C62.0755 0.29044 62.5906 0.0078125 63.1672 0.0078125H69.6331C70.2174 0.0078125 70.7249 0.298078 70.9401 0.870971L90.4916 49.3224C90.7838 50.1168 90.4224 50.5522 89.6228 50.5522H83.5183C82.934 50.5522 82.4265 50.262 82.2113 49.6891L79.6664 43.1887C79.4511 42.6081 78.936 42.3255 78.3594 42.3255H54.4487C53.8643 42.3255 53.3569 42.6158 53.1416 43.1887L50.5968 49.6891C50.3815 50.2696 49.8664 50.5522 49.2898 50.5522H43.1852C42.3856 50.5522 42.0243 50.1168 42.3164 49.3224H42.3088ZM69.1334 34.9543C73.1313 34.9543 75.1687 31.7079 73.5696 27.8046L71.2477 22.0298C69.4332 17.5536 63.4748 17.5536 61.6526 22.0298L59.3307 27.8046C57.7316 31.7002 59.6229 34.9543 63.7669 34.9543H69.1488H69.1334Z" fill="#212121"/>
<path d="M110.043 49.9715L103.5 43.4711C103.139 43.1121 102.916 42.608 102.916 42.0962V8.4559C102.916 7.95175 103.131 7.44761 103.5 7.08096L110.043 0.580531C110.404 0.221519 110.912 0 111.427 0H140.574C141.081 0 141.588 0.21388 141.957 0.580531L148.5 7.08096C148.862 7.43997 149.085 7.94412 149.085 8.4559V16.041C149.085 16.6903 148.646 17.1257 147.993 17.1257H142.473C141.819 17.1257 141.381 16.6903 141.381 16.041V14.6661C141.381 10.4037 138.329 7.37122 134.038 7.37122H117.977C113.687 7.37122 110.635 10.4037 110.635 14.6661V35.8936C110.635 40.156 113.687 43.1885 117.977 43.1885H134.038C138.329 43.1885 141.381 40.156 141.381 35.8936V32.1355C141.381 31.4862 140.943 31.0508 140.289 31.0508H133.677C133.024 31.0508 132.585 30.6154 132.585 29.9661V24.7642C132.585 24.115 133.024 23.6796 133.677 23.6796H147.993C148.646 23.6796 149.085 24.115 149.085 24.7642V42.0962C149.085 42.6003 148.938 43.0357 148.5 43.4711L141.957 49.9715C141.596 50.3306 141.089 50.5521 140.574 50.5521H111.427C110.92 50.5521 110.481 50.4069 110.043 49.9715Z" fill="#212121"/>
<path d="M161.647 49.3988L169.928 1.0161C169.997 0.366825 170.435 0.0078125 171.088 0.0078125H178.285C178.938 0.0078125 179.377 0.366825 179.446 1.0161L187.803 49.3912C187.949 50.1856 187.588 50.5446 186.857 50.5446H181.914C181.26 50.5446 180.822 50.2543 180.753 49.5363L179.807 43.3262C179.738 42.6005 179.3 42.3179 178.646 42.3179H170.796C170.143 42.3179 169.705 42.6081 169.635 43.3262L168.69 49.5363C168.621 50.262 168.182 50.5446 167.529 50.5446H162.585C161.855 50.5446 161.493 50.1856 161.64 49.3912L161.647 49.3988ZM176.178 35.3897C177.708 35.3897 178.431 34.5265 178.216 33.0064L177.347 27.2317C176.839 23.6186 172.626 23.6186 172.111 27.2317L171.242 33.0064C171.027 34.5189 171.75 35.3897 173.28 35.3897H176.186H176.178Z" fill="#212121"/>
<path d="M198.713 49.4676V44.4108C198.713 43.9067 198.859 43.4025 199.22 43.0359L220.009 18.6994C223.792 14.2919 221.463 7.65402 215.289 7.65402H201.119C200.466 7.65402 200.027 7.21862 200.027 6.56935V1.09249C200.027 0.443211 200.466 0.0078125 201.119 0.0078125H239.346C239.999 0.0078125 240.437 0.443211 240.437 1.09249V6.14922C240.437 6.65337 240.291 7.15752 239.93 7.52417L218.71 32.5099C215.512 36.2681 217.549 42.906 223.577 42.906H240.076C240.73 42.906 241.168 43.3414 241.168 43.9907V49.4752C241.168 50.1245 240.73 50.5599 240.076 50.5599H199.812C199.159 50.5599 198.72 50.1245 198.72 49.4752L198.713 49.4676Z" fill="#212121"/>
<path d="M253.438 49.4676V44.7011C253.438 44.0518 253.877 43.6164 254.53 43.6164H255.768C256.421 43.6164 256.86 43.181 256.86 42.5317V8.02067C256.86 7.3714 256.421 6.936 255.768 6.936H254.53C253.877 6.936 253.438 6.5006 253.438 5.85132V1.09249C253.438 0.443211 253.877 0.0078125 254.53 0.0078125H266.155C266.808 0.0078125 267.247 0.443211 267.247 1.09249V5.85896C267.247 6.50824 266.808 6.94364 266.155 6.94364H264.917C264.264 6.94364 263.825 7.37903 263.825 8.02831V42.5394C263.825 43.1887 264.264 43.6241 264.917 43.6241H266.155C266.808 43.6241 267.247 44.0595 267.247 44.7087V49.4752C267.247 50.1245 266.808 50.5599 266.155 50.5599H254.53C253.877 50.5599 253.438 50.1245 253.438 49.4752V49.4676Z" fill="#212121"/>
<path d="M279.74 49.4676V1.09249C279.74 0.443211 280.178 0.0078125 280.832 0.0078125H284.392C284.976 0.0078125 285.407 0.221692 285.63 0.802224L292.095 15.6058C293.479 18.8522 297.839 18.1341 297.839 14.7426V1.09249C297.839 0.443211 298.277 0.0078125 298.93 0.0078125H303.728C304.381 0.0078125 304.82 0.443211 304.82 1.09249V49.4676C304.82 50.1168 304.381 50.5522 303.728 50.5522H300.168C299.584 50.5522 299.153 50.3384 298.93 49.7578L292.464 34.9543C291.081 31.7079 286.721 32.4259 286.721 35.8174V49.4676C286.721 50.1168 286.283 50.5522 285.63 50.5522H280.832C280.178 50.5522 279.74 50.1168 279.74 49.4676Z" fill="#212121"/>
<path d="M319.351 49.4676V1.09249C319.351 0.443211 319.789 0.0078125 320.442 0.0078125H356.924C357.577 0.0078125 358.015 0.443211 358.015 1.09249V6.29436C358.015 6.94364 357.577 7.37903 356.924 7.37903H332.867C329.015 7.37903 327.054 9.32687 327.054 13.1538V15.178C327.054 19.1501 329.015 21.0979 332.867 21.0979H351.834C352.487 21.1667 352.926 21.5333 352.926 22.1826V27.3845C352.926 28.0337 352.487 28.4691 351.834 28.4691H332.867C329.015 28.4691 327.054 30.417 327.054 34.2439V37.2764C327.054 41.2485 329.015 43.1963 332.867 43.1963H356.924C357.577 43.1963 358.015 43.6317 358.015 44.281V49.4828C358.015 50.1321 357.577 50.5675 356.924 50.5675H320.442C319.789 50.5675 319.351 50.1321 319.351 49.4828V49.4676Z" fill="#212121"/>
<path d="M5.68168 116.427L0.592002 111.371C0.23065 111.012 0.00768834 110.507 0.00768834 109.996V106.024C0.00768834 105.374 0.445924 104.939 1.09943 104.939H5.96615C6.61966 104.939 7.0579 105.298 7.0579 106.024V106.169C7.0579 108.621 8.94923 110.064 11.7093 110.064H11.7785C15.0461 110.064 16.7913 108.117 16.7913 104.213V99.8058C16.7913 95.8338 15.0461 93.9547 11.7785 93.9547H6.32751C5.82008 93.9547 5.31264 93.7408 4.9436 93.3742L0.584314 89.1119C0.146078 88.6765 0 88.2487 0 87.7369V73.4375C0 72.9334 0.146078 72.498 0.584314 72.0626L5.674 67.0058C6.03535 66.6468 6.54278 66.4253 7.0579 66.4253H16.7221C17.2296 66.4253 17.6678 66.5704 18.106 67.0058L23.1957 72.0626C23.5571 72.4216 23.78 72.9257 23.78 73.4375V77.4096C23.78 78.0588 23.3418 78.4942 22.6883 78.4942H17.8216C17.1681 78.4942 16.7298 78.1352 16.7298 77.4096V77.3408C16.7298 74.7437 14.9154 73.3688 12.0092 73.3688H11.94C8.67245 73.3688 6.99639 75.393 6.99639 79.2199V81.1677C6.99639 85.1398 8.74165 87.0189 12.0092 87.0189H17.4602C17.9677 87.0189 18.4751 87.2328 18.8441 87.5994L23.2034 91.8617C23.6417 92.2971 23.7877 92.7249 23.7877 93.2367V109.988C23.7877 110.492 23.6417 110.928 23.2034 111.363L18.1137 116.42C17.7524 116.779 17.245 117 16.7298 117H7.06559C6.55816 117 6.11992 116.855 5.68168 116.42V116.427Z" fill="#212121"/>
<path d="M42.1704 116.427L35.6276 109.927C35.2662 109.568 35.0433 109.064 35.0433 108.552V74.9041C35.0433 74.4 35.2585 73.8958 35.6276 73.5292L42.1704 67.0288C42.5317 66.6698 43.0392 66.4482 43.5543 66.4482H72.7008C73.2082 66.4482 73.7156 66.6621 74.0847 67.0288L80.6275 73.5292C80.9888 73.8882 81.2118 74.3924 81.2118 74.9041V108.552C81.2118 109.056 80.9965 109.56 80.6275 109.927L74.0847 116.427C73.6464 116.863 73.2159 117.008 72.7008 117.008H43.5543C43.0468 117.008 42.6086 116.863 42.1704 116.427ZM66.1503 109.644C70.4404 109.644 73.4927 106.612 73.4927 102.35V81.1219C73.4927 76.8596 70.4404 73.8271 66.1503 73.8271H50.0894C45.7993 73.8271 42.747 76.8596 42.747 81.1219V102.35C42.747 106.612 45.7993 109.644 50.0894 109.644H66.1503Z" fill="#212121"/>
<path d="M98.1261 116.427L93.0365 111.371C92.6751 111.012 92.4521 110.508 92.4521 109.996V73.4605C92.4521 72.9563 92.5982 72.5209 93.0365 72.0855L98.1261 67.0288C98.4875 66.6698 98.9949 66.4482 99.51 66.4482H109.174C109.682 66.4482 110.12 66.5934 110.558 67.0288L115.648 72.0855C116.009 72.4445 116.232 72.9487 116.232 73.4605V77.4325C116.232 78.0818 115.794 78.5172 115.14 78.5172H110.274C109.62 78.5172 109.182 78.1582 109.182 77.4325V77.3638C109.182 74.7666 107.221 73.3917 104.461 73.3917H104.392C101.125 73.3917 99.4485 75.4159 99.4485 79.2429V104.229C99.4485 108.124 101.194 110.08 104.461 110.08H104.531C107.291 110.08 109.182 108.422 109.182 106.398V106.039C109.182 105.313 109.62 104.954 110.274 104.954H115.14C115.794 104.954 116.232 105.39 116.232 106.039V110.011C116.232 110.515 116.017 111.019 115.648 111.386L110.558 116.443C110.197 116.802 109.689 117.023 109.174 117.023H99.51C99.0026 117.023 98.4952 116.809 98.1261 116.443V116.427Z" fill="#212121"/>
<path d="M127.849 115.923V110.721C127.849 110.072 128.287 109.637 128.941 109.637H141.081C141.734 109.637 142.173 109.201 142.173 108.552V74.9041C142.173 74.2549 141.734 73.8195 141.081 73.8195H128.941C128.287 73.8195 127.849 73.3841 127.849 72.7348V67.5329C127.849 66.8836 128.287 66.4482 128.941 66.4482H163.1C163.754 66.4482 164.192 66.8836 164.192 67.5329V72.7348C164.192 73.3841 163.754 73.8195 163.1 73.8195H150.96C150.307 73.8195 149.869 74.2549 149.869 74.9041V108.552C149.869 109.201 150.307 109.637 150.96 109.637H163.1C163.754 109.637 164.192 110.072 164.192 110.721V115.923C164.192 116.573 163.754 117.008 163.1 117.008H128.941C128.287 117.008 127.849 116.573 127.849 115.923Z" fill="#212121"/>
<path d="M178 115.923V67.5481C178 66.8988 178.439 66.4634 179.092 66.4634H215.573C216.227 66.4634 216.665 66.8988 216.665 67.5481V72.7499C216.665 73.3992 216.227 73.8346 215.573 73.8346H191.516C187.665 73.8346 185.704 75.7824 185.704 79.6094V81.6336C185.704 85.6056 187.665 87.5535 191.516 87.5535H210.484C211.137 87.6222 211.575 87.9889 211.575 88.6382V93.84C211.575 94.4893 211.137 94.9247 210.484 94.9247H191.516C187.665 94.9247 185.704 96.8725 185.704 100.699V103.732C185.704 107.704 187.665 109.652 191.516 109.652H215.573C216.227 109.652 216.665 110.087 216.665 110.737V115.938C216.665 116.588 216.227 117.023 215.573 117.023H179.092C178.439 117.023 178 116.588 178 115.938V115.923Z" fill="#212121"/>
<path d="M234.102 115.923V77.0049C234.102 74.6981 232.795 73.3919 230.466 73.3919H226.468C225.814 73.3919 225.376 72.9565 225.376 72.3072V67.5407C225.376 66.8915 225.814 66.4561 226.468 66.4561H248.633C249.287 66.4561 249.725 66.8915 249.725 67.5407V72.3072C249.725 72.9565 249.287 73.3919 248.633 73.3919H244.712C242.39 73.3919 241.075 74.6904 241.075 77.0049V115.923C241.075 116.573 240.637 117.008 239.984 117.008H235.186C234.533 117.008 234.094 116.573 234.094 115.923H234.102Z" fill="#212121"/>
<path d="M277.856 115.923V97.7281C277.856 95.4212 277.349 94.0463 276.188 92.4574L257.582 67.7619C257.075 67.0363 257.436 66.4634 258.313 66.4634H265.432C266.016 66.4634 266.447 66.6773 266.739 67.1127L272.99 75.706C277.933 82.4967 285.345 82.4967 290.289 75.706L296.539 67.1127C296.831 66.6773 297.27 66.4634 297.846 66.4634H304.896C305.765 66.4634 306.134 67.0439 305.627 67.7619L287.167 92.4574C286.006 93.9775 285.568 95.4212 285.568 97.7281V115.923C285.568 116.572 285.13 117.008 284.476 117.008H278.956C278.302 117.008 277.864 116.572 277.864 115.923H277.856Z" fill="#212121"/>
</svg>
